<svg xmlns="http://www.w3.org/2000/svg" viewBox="0 0 128 128">
  <defs>
    <radialGradient id="bg" cx="50%" cy="42%" r="70%">
      <stop offset="0" stop-color="#17304a"/>
      <stop offset="1" stop-color="#050914"/>
    </radialGradient>
    <linearGradient id="gold" x1="0" y1="0" x2="1" y2="1">
      <stop stop-color="#fde68a"/>
      <stop offset=".5" stop-color="#fbbf24"/>
      <stop offset="1" stop-color="#d97706"/>
    </linearGradient>
  </defs>
  <rect width="128" height="128" rx="28" fill="url(#bg)"/>
  <circle cx="64" cy="64" r="50" fill="none" stroke="#22d3ee" stroke-opacity=".25" stroke-width="3" stroke-dasharray="6 7"/>
  <path d="M43 31h42v17c0 19-8 31-21 36-13-5-21-17-21-36V31Z" fill="url(#gold)"/>
  <path d="M43 39H29v9c0 13 8 21 22 22M85 39h14v9c0 13-8 21-22 22" fill="none" stroke="#fbbf24" stroke-width="7" stroke-linecap="round"/>
  <path d="M64 83v13M49 104h30" fill="none" stroke="#fbbf24" stroke-width="8" stroke-linecap="round"/>
  <path d="m64 43 5 10 11 2-8 8 2 11-10-5-10 5 2-11-8-8 11-2Z" fill="#fff7d6"/>
</svg>
