<svg xmlns="http://www.w3.org/2000/svg" viewBox="0 0 48 48" fill="none">
  <path d="M6 11h35v25H6z" fill="#0e3347" stroke="#67e8f9" stroke-width="2" stroke-linejoin="round"/>
  <circle cx="28" cy="23.5" r="9" fill="#071927" stroke="#a5f3fc" stroke-width="2"/>
  <path d="M28 15c3 3 3 5 0 8-3-1-5-3-5-6M36 23c-3 3-5 3-8 0 1-3 3-5 6-5M28 32c-3-3-3-5 0-8 3 1 5 3 5 6M19 23c3-3 5-3 8 0-1 3-3 5-6 5" fill="#22d3ee"/>
  <path d="M10 16h7M10 21h5M10 30h8M12 36v4m5-4v4m5-4v4m5-4v4m5-4v4" stroke="#a5f3fc" stroke-width="2" stroke-linecap="round"/>
</svg>
