<svg xmlns="http://www.w3.org/2000/svg" viewBox="0 0 48 48" fill="none">
  <rect x="5" y="12" width="38" height="25" rx="5" fill="#0e3347" stroke="#67e8f9" stroke-width="2"/>
  <g fill="#a5f3fc">
    <rect x="9" y="16" width="5" height="4" rx="1"/><rect x="16" y="16" width="5" height="4" rx="1"/><rect x="23" y="16" width="5" height="4" rx="1"/><rect x="30" y="16" width="5" height="4" rx="1"/><rect x="37" y="16" width="2" height="4" rx="1"/>
    <rect x="9" y="22" width="4" height="4" rx="1"/><rect x="15" y="22" width="5" height="4" rx="1"/><rect x="22" y="22" width="5" height="4" rx="1"/><rect x="29" y="22" width="5" height="4" rx="1"/><rect x="36" y="22" width="3" height="4" rx="1"/>
    <rect x="9" y="28" width="6" height="4" rx="1"/><rect x="17" y="28" width="21" height="4" rx="1"/>
  </g>
</svg>
